<svg width="600" height="100" viewBox="0 0 316 31" fill="none" xmlns="http://www.w3.org/2000/svg">
<path d="M6.03409 24H0.761364L8.79545 0.727272H15.1364L23.1591 24H17.8864L12.0568 6.04545H11.875L6.03409 24ZM5.70455 14.8523H18.1591V18.6932H5.70455V14.8523ZM25.9602 24V0.727272H30.8011V9.47727H30.9489C31.161 9.00758 31.4678 8.5303 31.8693 8.04545C32.2784 7.55303 32.8087 7.14394 33.4602 6.81818C34.1193 6.48485 34.9375 6.31818 35.9148 6.31818C37.1875 6.31818 38.3617 6.65152 39.4375 7.31818C40.5133 7.97727 41.3731 8.97348 42.017 10.3068C42.661 11.6326 42.983 13.2955 42.983 15.2955C42.983 17.2424 42.6686 18.8864 42.0398 20.2273C41.4186 21.5606 40.5701 22.572 39.4943 23.2614C38.4261 23.9432 37.2292 24.2841 35.9034 24.2841C34.964 24.2841 34.1648 24.1288 33.5057 23.8182C32.8542 23.5076 32.3201 23.1174 31.9034 22.6477C31.4867 22.1705 31.1686 21.6894 30.9489 21.2045H30.733V24H25.9602ZM30.6989 15.2727C30.6989 16.3106 30.8428 17.2159 31.1307 17.9886C31.4186 18.7614 31.8352 19.3636 32.3807 19.7955C32.9261 20.2197 33.589 20.4318 34.3693 20.4318C35.1572 20.4318 35.8239 20.2159 36.3693 19.7841C36.9148 19.3447 37.3277 18.7386 37.608 17.9659C37.8958 17.1856 38.0398 16.2879 38.0398 15.2727C38.0398 14.2652 37.8996 13.3788 37.6193 12.6136C37.339 11.8485 36.9261 11.25 36.3807 10.8182C35.8352 10.3864 35.1648 10.1705 34.3693 10.1705C33.5814 10.1705 32.9148 10.3788 32.3693 10.7955C31.8314 11.2121 31.4186 11.803 31.1307 12.5682C30.8428 13.3333 30.6989 14.2348 30.6989 15.2727ZM52.6449 24.2841C51.3191 24.2841 50.1184 23.9432 49.0426 23.2614C47.9744 22.572 47.1259 21.5606 46.4972 20.2273C45.8759 18.8864 45.5653 17.2424 45.5653 15.2955C45.5653 13.2955 45.8873 11.6326 46.5312 10.3068C47.1752 8.97348 48.0313 7.97727 49.0994 7.31818C50.1752 6.65152 51.3532 6.31818 52.6335 6.31818C53.6108 6.31818 54.4252 6.48485 55.0767 6.81818C55.7358 7.14394 56.2661 7.55303 56.6676 8.04545C57.0767 8.5303 57.3873 9.00758 57.5994 9.47727H57.7472V0.727272H62.5767V24H57.804V21.2045H57.5994C57.3722 21.6894 57.0502 22.1705 56.6335 22.6477C56.2244 23.1174 55.6903 23.5076 55.0312 23.8182C54.3797 24.1288 53.5843 24.2841 52.6449 24.2841ZM54.179 20.4318C54.9593 20.4318 55.6184 20.2197 56.1562 19.7955C56.7017 19.3636 57.1184 18.7614 57.4062 17.9886C57.7017 17.2159 57.8494 16.3106 57.8494 15.2727C57.8494 14.2348 57.7055 13.3333 57.4176 12.5682C57.1297 11.803 56.7131 11.2121 56.1676 10.7955C55.6222 10.3788 54.9593 10.1705 54.179 10.1705C53.3835 10.1705 52.7131 10.3864 52.1676 10.8182C51.6222 11.25 51.2093 11.8485 50.929 12.6136C50.6487 13.3788 50.5085 14.2652 50.5085 15.2727C50.5085 16.2879 50.6487 17.1856 50.929 17.9659C51.2169 18.7386 51.6297 19.3447 52.1676 19.7841C52.7131 20.2159 53.3835 20.4318 54.179 20.4318ZM77.75 16.5682V6.54545H82.5909V24H77.9432V20.8295H77.7614C77.3674 21.8523 76.7121 22.6742 75.7955 23.2955C74.8864 23.9167 73.7765 24.2273 72.4659 24.2273C71.2992 24.2273 70.2727 23.9621 69.3864 23.4318C68.5 22.9015 67.8068 22.1477 67.3068 21.1705C66.8144 20.1932 66.5644 19.0227 66.5568 17.6591V6.54545H71.3977V16.7955C71.4053 17.8258 71.6818 18.6402 72.2273 19.2386C72.7727 19.8371 73.5038 20.1364 74.4205 20.1364C75.0038 20.1364 75.5492 20.0038 76.0568 19.7386C76.5644 19.4659 76.9735 19.0644 77.2841 18.5341C77.6023 18.0038 77.7576 17.3485 77.75 16.5682ZM91.304 0.727272V24H86.4631V0.727272H91.304ZM95.1818 24V6.54545H99.875V9.59091H100.057C100.375 8.50758 100.909 7.68939 101.659 7.13636C102.409 6.57576 103.273 6.29545 104.25 6.29545C104.492 6.29545 104.754 6.31061 105.034 6.34091C105.314 6.37121 105.561 6.41288 105.773 6.46591V10.7614C105.545 10.6932 105.231 10.6326 104.83 10.5795C104.428 10.5265 104.061 10.5 103.727 10.5C103.015 10.5 102.379 10.6553 101.818 10.9659C101.265 11.2689 100.826 11.6932 100.5 12.2386C100.182 12.7841 100.023 13.4129 100.023 14.125V24H95.1818ZM112.753 24.3295C111.639 24.3295 110.647 24.1364 109.776 23.75C108.904 23.3561 108.215 22.7765 107.707 22.0114C107.207 21.2386 106.957 20.2765 106.957 19.125C106.957 18.1553 107.135 17.3409 107.491 16.6818C107.848 16.0227 108.332 15.4924 108.946 15.0909C109.56 14.6894 110.257 14.3864 111.037 14.1818C111.825 13.9773 112.651 13.8333 113.514 13.75C114.529 13.6439 115.348 13.5455 115.969 13.4545C116.59 13.3561 117.041 13.2121 117.321 13.0227C117.601 12.8333 117.741 12.553 117.741 12.1818V12.1136C117.741 11.3939 117.514 10.8371 117.06 10.4432C116.613 10.0492 115.976 9.85227 115.151 9.85227C114.279 9.85227 113.586 10.0455 113.071 10.4318C112.556 10.8106 112.215 11.2879 112.048 11.8636L107.571 11.5C107.798 10.4394 108.245 9.52273 108.912 8.75C109.579 7.9697 110.438 7.37121 111.491 6.95454C112.552 6.5303 113.779 6.31818 115.173 6.31818C116.143 6.31818 117.071 6.43182 117.957 6.65909C118.851 6.88636 119.643 7.23864 120.332 7.71591C121.029 8.19318 121.579 8.80682 121.98 9.55682C122.382 10.2992 122.582 11.1894 122.582 12.2273V24H117.991V21.5795H117.855C117.575 22.125 117.2 22.6061 116.73 23.0227C116.26 23.4318 115.696 23.7538 115.037 23.9886C114.378 24.2159 113.616 24.3295 112.753 24.3295ZM114.139 20.9886C114.851 20.9886 115.48 20.8485 116.026 20.5682C116.571 20.2803 116.999 19.8939 117.31 19.4091C117.62 18.9242 117.776 18.375 117.776 17.7614V15.9091C117.624 16.0076 117.416 16.0985 117.151 16.1818C116.893 16.2576 116.601 16.3295 116.276 16.3977C115.95 16.4583 115.624 16.5152 115.298 16.5682C114.973 16.6136 114.677 16.6553 114.412 16.6932C113.844 16.7765 113.348 16.9091 112.923 17.0909C112.499 17.2727 112.17 17.5189 111.935 17.8295C111.7 18.1326 111.582 18.5114 111.582 18.9659C111.582 19.625 111.821 20.1288 112.298 20.4773C112.783 20.8182 113.397 20.9886 114.139 20.9886ZM131.179 13.9091V24H126.338V0.727272H131.043V9.625H131.247C131.641 8.5947 132.277 7.78788 133.156 7.20454C134.035 6.61364 135.137 6.31818 136.463 6.31818C137.675 6.31818 138.732 6.58333 139.634 7.11364C140.543 7.63636 141.247 8.39015 141.747 9.375C142.255 10.3523 142.505 11.5227 142.497 12.8864V24H137.656V13.75C137.664 12.6742 137.391 11.8371 136.838 11.2386C136.293 10.6402 135.527 10.3409 134.543 10.3409C133.884 10.3409 133.3 10.4811 132.793 10.7614C132.293 11.0417 131.899 11.4508 131.611 11.9886C131.33 12.5189 131.187 13.1591 131.179 13.9091ZM146.307 24V6.54545H150.92V9.625H151.125C151.489 8.60227 152.095 7.79545 152.943 7.20454C153.792 6.61364 154.807 6.31818 155.989 6.31818C157.186 6.31818 158.205 6.61742 159.045 7.21591C159.886 7.80682 160.447 8.60985 160.727 9.625H160.909C161.265 8.625 161.909 7.82576 162.841 7.22727C163.78 6.62121 164.89 6.31818 166.17 6.31818C167.799 6.31818 169.121 6.83712 170.136 7.875C171.159 8.9053 171.67 10.3674 171.67 12.2614V24H166.841V13.2159C166.841 12.2462 166.583 11.5189 166.068 11.0341C165.553 10.5492 164.909 10.3068 164.136 10.3068C163.258 10.3068 162.572 10.5871 162.08 11.1477C161.587 11.7008 161.341 12.4318 161.341 13.3409V24H156.648V13.1136C156.648 12.2576 156.402 11.5758 155.909 11.0682C155.424 10.5606 154.784 10.3068 153.989 10.3068C153.451 10.3068 152.966 10.4432 152.534 10.7159C152.11 10.9811 151.773 11.3561 151.523 11.8409C151.273 12.3182 151.148 12.8788 151.148 13.5227V24H146.307ZM180.472 24.3295C179.358 24.3295 178.366 24.1364 177.494 23.75C176.623 23.3561 175.934 22.7765 175.426 22.0114C174.926 21.2386 174.676 20.2765 174.676 19.125C174.676 18.1553 174.854 17.3409 175.21 16.6818C175.566 16.0227 176.051 15.4924 176.665 15.0909C177.278 14.6894 177.975 14.3864 178.756 14.1818C179.544 13.9773 180.369 13.8333 181.233 13.75C182.248 13.6439 183.066 13.5455 183.688 13.4545C184.309 13.3561 184.759 13.2121 185.04 13.0227C185.32 12.8333 185.46 12.553 185.46 12.1818V12.1136C185.46 11.3939 185.233 10.8371 184.778 10.4432C184.331 10.0492 183.695 9.85227 182.869 9.85227C181.998 9.85227 181.305 10.0455 180.79 10.4318C180.275 10.8106 179.934 11.2879 179.767 11.8636L175.29 11.5C175.517 10.4394 175.964 9.52273 176.631 8.75C177.297 7.9697 178.157 7.37121 179.21 6.95454C180.271 6.5303 181.498 6.31818 182.892 6.31818C183.862 6.31818 184.79 6.43182 185.676 6.65909C186.57 6.88636 187.362 7.23864 188.051 7.71591C188.748 8.19318 189.297 8.80682 189.699 9.55682C190.1 10.2992 190.301 11.1894 190.301 12.2273V24H185.71V21.5795H185.574C185.294 22.125 184.919 22.6061 184.449 23.0227C183.979 23.4318 183.415 23.7538 182.756 23.9886C182.097 24.2159 181.335 24.3295 180.472 24.3295ZM181.858 20.9886C182.57 20.9886 183.199 20.8485 183.744 20.5682C184.29 20.2803 184.718 19.8939 185.028 19.4091C185.339 18.9242 185.494 18.375 185.494 17.7614V15.9091C185.343 16.0076 185.134 16.0985 184.869 16.1818C184.612 16.2576 184.32 16.3295 183.994 16.3977C183.669 16.4583 183.343 16.5152 183.017 16.5682C182.691 16.6136 182.396 16.6553 182.131 16.6932C181.563 16.7765 181.066 16.9091 180.642 17.0909C180.218 17.2727 179.888 17.5189 179.653 17.8295C179.419 18.1326 179.301 18.5114 179.301 18.9659C179.301 19.625 179.54 20.1288 180.017 20.4773C180.502 20.8182 181.116 20.9886 181.858 20.9886ZM198.898 13.9091V24H194.057V6.54545H198.67V9.625H198.875C199.261 8.60985 199.909 7.80682 200.818 7.21591C201.727 6.61742 202.83 6.31818 204.125 6.31818C205.337 6.31818 206.394 6.58333 207.295 7.11364C208.197 7.64394 208.898 8.40151 209.398 9.38636C209.898 10.3636 210.148 11.5303 210.148 12.8864V24H205.307V13.75C205.314 12.6818 205.042 11.8485 204.489 11.25C203.936 10.6439 203.174 10.3409 202.205 10.3409C201.553 10.3409 200.977 10.4811 200.477 10.7614C199.985 11.0417 199.598 11.4508 199.318 11.9886C199.045 12.5189 198.905 13.1591 198.898 13.9091Z" fill="#1A1A1A"/>
<path d="M214.054 24V0.727272H229.463V4.78409H218.974V10.3295H228.44V14.3864H218.974V24H214.054ZM237.44 24.3295C236.327 24.3295 235.334 24.1364 234.463 23.75C233.592 23.3561 232.902 22.7765 232.395 22.0114C231.895 21.2386 231.645 20.2765 231.645 19.125C231.645 18.1553 231.823 17.3409 232.179 16.6818C232.535 16.0227 233.02 15.4924 233.634 15.0909C234.247 14.6894 234.944 14.3864 235.724 14.1818C236.512 13.9773 237.338 13.8333 238.202 13.75C239.217 13.6439 240.035 13.5455 240.656 13.4545C241.277 13.3561 241.728 13.2121 242.009 13.0227C242.289 12.8333 242.429 12.553 242.429 12.1818V12.1136C242.429 11.3939 242.202 10.8371 241.747 10.4432C241.3 10.0492 240.664 9.85227 239.838 9.85227C238.967 9.85227 238.274 10.0455 237.759 10.4318C237.243 10.8106 236.902 11.2879 236.736 11.8636L232.259 11.5C232.486 10.4394 232.933 9.52273 233.599 8.75C234.266 7.9697 235.126 7.37121 236.179 6.95454C237.24 6.5303 238.467 6.31818 239.861 6.31818C240.83 6.31818 241.759 6.43182 242.645 6.65909C243.539 6.88636 244.33 7.23864 245.02 7.71591C245.717 8.19318 246.266 8.80682 246.668 9.55682C247.069 10.2992 247.27 11.1894 247.27 12.2273V24H242.679V21.5795H242.543C242.262 22.125 241.887 22.6061 241.418 23.0227C240.948 23.4318 240.384 23.7538 239.724 23.9886C239.065 24.2159 238.304 24.3295 237.44 24.3295ZM238.827 20.9886C239.539 20.9886 240.168 20.8485 240.713 20.5682C241.259 20.2803 241.687 19.8939 241.997 19.4091C242.308 18.9242 242.463 18.375 242.463 17.7614V15.9091C242.312 16.0076 242.103 16.0985 241.838 16.1818C241.58 16.2576 241.289 16.3295 240.963 16.3977C240.637 16.4583 240.312 16.5152 239.986 16.5682C239.66 16.6136 239.365 16.6553 239.099 16.6932C238.531 16.7765 238.035 16.9091 237.611 17.0909C237.187 17.2727 236.857 17.5189 236.622 17.8295C236.387 18.1326 236.27 18.5114 236.27 18.9659C236.27 19.625 236.509 20.1288 236.986 20.4773C237.471 20.8182 238.084 20.9886 238.827 20.9886ZM255.866 13.9091V24H251.026V0.727272H255.73V9.625H255.935C256.329 8.5947 256.965 7.78788 257.844 7.20454C258.723 6.61364 259.825 6.31818 261.151 6.31818C262.363 6.31818 263.42 6.58333 264.321 7.11364C265.23 7.63636 265.935 8.39015 266.435 9.375C266.942 10.3523 267.192 11.5227 267.185 12.8864V24H262.344V13.75C262.351 12.6742 262.079 11.8371 261.526 11.2386C260.98 10.6402 260.215 10.3409 259.23 10.3409C258.571 10.3409 257.988 10.4811 257.48 10.7614C256.98 11.0417 256.586 11.4508 256.298 11.9886C256.018 12.5189 255.874 13.1591 255.866 13.9091ZM270.994 24V6.54545H275.608V9.625H275.812C276.176 8.60227 276.782 7.79545 277.631 7.20454C278.479 6.61364 279.494 6.31818 280.676 6.31818C281.873 6.31818 282.892 6.61742 283.733 7.21591C284.574 7.80682 285.134 8.60985 285.415 9.625H285.597C285.953 8.625 286.597 7.82576 287.528 7.22727C288.468 6.62121 289.578 6.31818 290.858 6.31818C292.487 6.31818 293.809 6.83712 294.824 7.875C295.847 8.9053 296.358 10.3674 296.358 12.2614V24H291.528V13.2159C291.528 12.2462 291.271 11.5189 290.756 11.0341C290.241 10.5492 289.597 10.3068 288.824 10.3068C287.945 10.3068 287.259 10.5871 286.767 11.1477C286.275 11.7008 286.028 12.4318 286.028 13.3409V24H281.335V13.1136C281.335 12.2576 281.089 11.5758 280.597 11.0682C280.112 10.5606 279.472 10.3068 278.676 10.3068C278.138 10.3068 277.653 10.4432 277.222 10.7159C276.797 10.9811 276.46 11.3561 276.21 11.8409C275.96 12.3182 275.835 12.8788 275.835 13.5227V24H270.994ZM302.545 30.5455C301.932 30.5455 301.356 30.4962 300.818 30.3977C300.288 30.3068 299.848 30.1894 299.5 30.0455L300.591 26.4318C301.159 26.6061 301.67 26.7008 302.125 26.7159C302.587 26.7311 302.985 26.625 303.318 26.3977C303.659 26.1705 303.936 25.7841 304.148 25.2386L304.432 24.5L298.17 6.54545H303.261L306.875 19.3636H307.057L310.705 6.54545H315.83L309.045 25.8864C308.72 26.8258 308.277 27.6439 307.716 28.3409C307.163 29.0455 306.462 29.5871 305.614 29.9659C304.765 30.3523 303.742 30.5455 302.545 30.5455Z" fill="#FF5722"/>
</svg>
